<?xml version="1.0" encoding="utf-8"?>
<!-- Generator: Adobe Illustrator 24.1.1, SVG Export Plug-In . SVG Version: 6.00 Build 0)  -->
<svg version="1.1" id="Layer_1" xmlns="http://www.w3.org/2000/svg" xmlns:xlink="http://www.w3.org/1999/xlink" x="0px" y="0px"
	 viewBox="0 0 512 512" style="enable-background:new 0 0 512 512;" xml:space="preserve">
<g>
	<path d="M72.8,499.5L499.5,72.8c16.7-16.7,16.7-43.7,0-60.3c-16.7-16.7-43.7-16.7-60.3,0L12.5,439.2c-16.7,16.7-16.7,43.7,0,60.3
		S56.2,516.2,72.8,499.5"/>
	<path d="M42.7,85.3h384l0,384c0,23.6,19.1,42.7,42.7,42.7c23.6,0,42.7-19.1,42.7-42.7V42.7c0-11.2-4.6-22.2-12.5-30.2
		C491.6,4.6,480.6,0,469.3,0H42.7C19.1,0,0,19.1,0,42.7C0,66.2,19.1,85.3,42.7,85.3L42.7,85.3z"/>
</g>
</svg>
