<svg width="250" height="135" viewBox="0 0 250 135" fill="none" xmlns="http://www.w3.org/2000/svg">
<path d="M138.688 42.3128V12.1006H144.591L158.67 32.947V12.1006H164.572V42.3128H158.67L144.591 21.5095V42.3128H138.688Z" fill="#4C6792"/>
<path d="M180.991 42.8307C178.775 42.8307 176.808 42.3704 175.088 41.4496C173.398 40.5001 172.071 39.1909 171.109 37.522C170.177 35.8244 169.71 33.8678 169.71 31.6522C169.71 29.3791 170.177 27.3793 171.109 25.6529C172.071 23.8977 173.398 22.531 175.088 21.5527C176.779 20.5456 178.746 20.0421 180.991 20.0421C183.177 20.0421 185.086 20.5169 186.718 21.4664C188.351 22.4159 189.619 23.6963 190.522 25.3077C191.426 26.919 191.878 28.7461 191.878 30.789C191.878 31.0767 191.878 31.4076 191.878 31.7817C191.878 32.127 191.848 32.4867 191.79 32.8607H173.908V29.3216H185.931C185.844 27.9117 185.334 26.8039 184.401 25.9982C183.497 25.1926 182.361 24.7897 180.991 24.7897C180 24.7897 179.082 25.0199 178.236 25.4803C177.391 25.9119 176.72 26.5881 176.225 27.5088C175.759 28.4296 175.525 29.5949 175.525 31.0048V32.2565C175.525 33.4362 175.744 34.472 176.181 35.364C176.648 36.2272 177.289 36.9034 178.105 37.3925C178.921 37.8529 179.869 38.0831 180.947 38.0831C182.025 38.0831 182.915 37.8529 183.614 37.3925C184.343 36.9322 184.882 36.3423 185.232 35.623H191.266C190.857 36.9753 190.172 38.1982 189.211 39.2916C188.249 40.385 187.068 41.2482 185.669 41.8812C184.27 42.5142 182.71 42.8307 180.991 42.8307Z" fill="#4C6792"/>
<path d="M200.186 42.3128L193.715 20.56H199.53L203.815 38.2126L202.722 38.1694L207.619 20.56H214.178L219.074 38.1694L217.938 38.2126L222.266 20.56H228.081L221.61 42.3128H215.489L210.286 24.1855H211.51L206.307 42.3128H200.186Z" fill="#4C6792"/>
<path d="M240.731 42.8307C238.72 42.8307 236.971 42.5142 235.484 41.8812C233.997 41.2482 232.832 40.3706 231.986 39.2484C231.141 38.1263 230.66 36.8602 230.543 35.4503H236.402C236.548 35.997 236.796 36.5006 237.146 36.9609C237.495 37.3925 237.962 37.7378 238.545 37.9968C239.128 38.2558 239.827 38.3852 240.643 38.3852C241.43 38.3852 242.072 38.2845 242.567 38.0831C243.063 37.8529 243.427 37.5508 243.66 37.1767C243.923 36.8027 244.054 36.4142 244.054 36.0114C244.054 35.4072 243.879 34.9468 243.529 34.6303C243.179 34.285 242.669 34.0117 241.999 33.8102C241.328 33.6088 240.512 33.4074 239.55 33.206C238.501 33.0046 237.466 32.76 236.446 32.4723C235.455 32.1558 234.566 31.7673 233.779 31.3069C232.992 30.8466 232.365 30.2567 231.899 29.5374C231.432 28.818 231.199 27.926 231.199 26.8614C231.199 25.5666 231.549 24.4157 232.249 23.4086C232.948 22.3727 233.968 21.5527 235.309 20.9485C236.65 20.3442 238.268 20.0421 240.162 20.0421C242.815 20.0421 244.914 20.6319 246.458 21.8117C248.003 22.9914 248.921 24.6171 249.213 26.6888H243.66C243.485 26.027 243.092 25.5091 242.48 25.135C241.897 24.7322 241.11 24.5308 240.119 24.5308C239.069 24.5308 238.268 24.7178 237.714 25.0918C237.16 25.4659 236.883 25.9551 236.883 26.5593C236.883 26.9621 237.058 27.3218 237.408 27.6383C237.787 27.9548 238.311 28.2282 238.982 28.4584C239.652 28.6598 240.468 28.8612 241.43 29.0626C243.121 29.4079 244.607 29.8107 245.89 30.2711C247.173 30.7027 248.178 31.3357 248.907 32.1701C249.636 32.9758 250 34.1555 250 35.7093C250 37.0904 249.621 38.3277 248.863 39.4211C248.105 40.4857 247.027 41.3201 245.628 41.9244C244.258 42.5286 242.625 42.8307 240.731 42.8307Z" fill="#4C6792"/>
<path d="M61.0961 134.53C48.7535 134.53 38.0154 131.805 28.8818 126.354C19.7482 120.78 12.6512 113.037 7.59073 103.127C2.53024 93.0931 0 81.4488 0 68.194C0 54.8153 2.59196 43.0471 7.77587 32.8892C12.9598 22.6074 20.4271 14.5555 30.1778 8.73329C39.9285 2.9111 51.5923 0 65.1692 0C80.3507 0 92.9402 3.65435 102.938 10.9631C109.669 15.8238 114.817 21.9449 118.381 29.3261C121.241 35.2471 116.299 41.4367 109.724 41.4367H102.049C97.611 41.4367 93.8714 38.4231 91.3344 34.782C89.4916 32.1373 87.1264 29.896 84.2386 28.058C79.3015 24.7134 72.8834 23.041 64.9841 23.041C56.5911 23.041 49.4323 24.8992 43.5078 28.6155C37.5834 32.3318 33.0783 37.5346 29.9926 44.2239C26.907 50.9132 25.3641 58.9033 25.3641 68.194C25.3641 77.6086 26.907 85.5986 29.9926 92.1641C33.0783 98.7295 37.4599 103.747 43.1376 107.215C48.9386 110.56 55.7271 112.232 63.5029 112.232C74.8582 112.232 83.4363 109.197 89.2374 103.127C90.9875 101.297 92.5275 99.3111 93.8576 97.1679C99.2317 88.5085 90.862 79.1571 80.6705 79.1571H78.1897C72.5324 79.1571 67.9463 74.5709 67.9463 68.9137V60.3898H124.969V132.3H110.987C105.771 132.3 101.388 128.38 100.808 123.196L99.9755 115.763C97.2601 119.85 94.051 123.319 90.3482 126.168C86.7688 128.893 82.5723 130.937 77.7587 132.3C72.9451 133.787 67.3909 134.53 61.0961 134.53Z" fill="url(#paint0_radial_783_10526)"/>
<path d="M138.689 70.1465C138.689 64.4893 143.275 59.9031 148.932 59.9031H156.444C162.101 59.9031 166.687 64.4893 166.687 70.1465V122.046C166.687 127.704 162.101 132.29 156.444 132.29H148.932C143.275 132.29 138.689 127.704 138.689 122.046V70.1465Z" fill="url(#paint1_radial_783_10526)"/>
<path d="M180.345 70.1465C180.345 64.4893 184.931 59.9031 190.588 59.9031H198.1C203.757 59.9031 208.344 64.4893 208.344 70.1465V122.046C208.344 127.704 203.757 132.29 198.1 132.29H190.588C184.931 132.29 180.345 127.704 180.345 122.046V70.1465Z" fill="url(#paint2_radial_783_10526)"/>
<path d="M222.001 70.1465C222.001 64.4893 226.588 59.9031 232.245 59.9031H239.757C245.414 59.9031 250 64.4893 250 70.1465V122.046C250 127.704 245.414 132.29 239.757 132.29H232.245C226.588 132.29 222.001 127.704 222.001 122.046V70.1465Z" fill="url(#paint3_radial_783_10526)"/>
<defs>
<radialGradient id="paint0_radial_783_10526" cx="0" cy="0" r="1" gradientTransform="matrix(13.1743 43.0463 -12.2436 25.745 231.458 74.8159)" gradientUnits="userSpaceOnUse">
<stop offset="0.506" stop-color="#17A1F3"/>
<stop offset="0.767" stop-color="#1B7FFA"/>
<stop offset="0.962" stop-color="#1366F0"/>
<stop offset="1" stop-color="#1160EE"/>
</radialGradient>
<radialGradient id="paint1_radial_783_10526" cx="0" cy="0" r="1" gradientTransform="matrix(13.1743 43.0463 -12.2436 25.745 231.458 74.8159)" gradientUnits="userSpaceOnUse">
<stop offset="0.506" stop-color="#17A1F3"/>
<stop offset="0.767" stop-color="#1B7FFA"/>
<stop offset="0.962" stop-color="#1366F0"/>
<stop offset="1" stop-color="#1160EE"/>
</radialGradient>
<radialGradient id="paint2_radial_783_10526" cx="0" cy="0" r="1" gradientTransform="matrix(13.1743 43.0463 -12.2436 25.745 231.458 74.8159)" gradientUnits="userSpaceOnUse">
<stop offset="0.506" stop-color="#17A1F3"/>
<stop offset="0.767" stop-color="#1B7FFA"/>
<stop offset="0.962" stop-color="#1366F0"/>
<stop offset="1" stop-color="#1160EE"/>
</radialGradient>
<radialGradient id="paint3_radial_783_10526" cx="0" cy="0" r="1" gradientTransform="matrix(13.1743 43.0463 -12.2436 25.745 231.458 74.8159)" gradientUnits="userSpaceOnUse">
<stop offset="0.506" stop-color="#17A1F3"/>
<stop offset="0.767" stop-color="#1B7FFA"/>
<stop offset="0.962" stop-color="#1366F0"/>
<stop offset="1" stop-color="#1160EE"/>
</radialGradient>
</defs>
</svg>
